<?xml version="1.0" encoding="UTF-8"?>
<svg width="107px" height="70px" viewBox="0 0 107 70" version="1.1" xmlns="http://www.w3.org/2000/svg" xmlns:xlink="http://www.w3.org/1999/xlink">
    <!-- Generator: Sketch 52.2 (67145) - http://www.bohemiancoding.com/sketch -->
    <title>Bewölkt_Dunkel</title>
    <desc>Created with Sketch.</desc>
    <g id="Bewölkt_Dunkel" stroke="none" stroke-width="1" fill="none" fill-rule="evenodd">
        <g id="Bewölkt" transform="translate(0.000000, 6.000000)" fill-rule="nonzero">
            <path d="M33,31.7938731 C33,25.0867047 36.9157088,21.1582961 44.7471264,20.0086472 C44.9029742,9.29085783 49.0983765,2.83704363 57.3333333,0.647204627 C65.5682902,-1.54263438 72.9801676,1.82457303 79.5689655,10.7488268 C85.804488,8.80343418 90.699124,9.36463541 94.2528736,12.4324306 C97.8066231,15.5002257 98.9253971,20.1301359 97.6091954,26.3221611 C103.203065,28.1646043 106,31.2512111 106,35.5819815 C106,39.9127518 103.203065,42.718758 97.6091954,44 L44.7471264,44 C36.9157088,42.5697505 33,38.5010416 33,31.7938731 Z" id="Wolke" fill="#B1B1B1"></path>
            <path d="M0,43.7688325 C3.78956126e-14,35.8011992 4.66666667,31.1345326 14,29.7688325 C14.1857363,17.0368703 19.1857363,9.3702036 29,6.76883251 C38.8142637,4.16746141 47.647597,8.16746141 55.5,18.7688325 C62.9313761,16.4578461 68.7647094,17.1245127 73,20.7688325 C77.2352906,24.4131523 78.5686239,29.9131523 77,37.2688325 C83.6666667,39.4575224 87,43.1241891 87,48.2688325 C87,53.4134759 83.6666667,56.7468092 77,58.2688325 L14,58.2688325 C4.66666667,56.5697991 -3.69853281e-14,51.7364658 0,43.7688325 Z" id="Wolke" fill="#D8D8D8"></path>
        </g>
    </g>
</svg>