<?xml version="1.0" encoding="UTF-8"?>
<svg width="12px" height="12px" viewBox="0 0 12 12" version="1.1" xmlns="http://www.w3.org/2000/svg" xmlns:xlink="http://www.w3.org/1999/xlink">
    <!-- Generator: Sketch 52.2 (67145) - http://www.bohemiancoding.com/sketch -->
    <title>Combined Shape</title>
    <desc>Created with Sketch.</desc>
    <defs>
        <path d="M184.019348,18.1943901 L186.662479,20.837521 C186.890285,21.0653269 186.890285,21.4346731 186.662479,21.662479 C186.434673,21.8902848 186.065327,21.8902848 185.837521,21.662479 L183.19439,19.019348 C182.350136,19.6856729 181.284007,20.0833333 180.125,20.0833333 C177.386588,20.0833333 175.166667,17.8634119 175.166667,15.125 C175.166667,12.3865881 177.386588,10.1666667 180.125,10.1666667 C182.863412,10.1666667 185.083333,12.3865881 185.083333,15.125 C185.083333,16.2840073 184.685673,17.3501361 184.019348,18.1943901 Z M182.843193,17.7685169 C183.507527,17.0855351 183.916667,16.1530474 183.916667,15.125 C183.916667,13.0309203 182.21908,11.3333333 180.125,11.3333333 C178.03092,11.3333333 176.333333,13.0309203 176.333333,15.125 C176.333333,17.2190797 178.03092,18.9166667 180.125,18.9166667 C181.153047,18.9166667 182.085535,18.5075267 182.768517,17.8431927 C182.779712,17.8297909 182.791602,17.8167733 182.804188,17.8041877 C182.816773,17.7916021 182.829791,17.7797119 182.843193,17.7685169 Z" id="path-1"></path>
    </defs>
    <g id="Page-1" stroke="none" stroke-width="1" fill="none" fill-rule="evenodd">
        <g id="Wetter_Popover" transform="translate(-451.000000, -423.000000)">
            <g id="Modal">
                <g id="Suche" transform="translate(252.000000, 332.000000)">
                    <g transform="translate(24.000000, 81.000000)">
                        <mask id="mask-2" fill="white">
                            <use xlink:href="#path-1"></use>
                        </mask>
                        <use id="Combined-Shape" fill="#D9D9D9" fill-rule="nonzero" xlink:href="#path-1"></use>
                    </g>
                </g>
            </g>
        </g>
    </g>
</svg>