<?xml version="1.0" encoding="UTF-8"?>
<svg width="107px" height="70px" viewBox="0 0 107 70" version="1.1" xmlns="http://www.w3.org/2000/svg" xmlns:xlink="http://www.w3.org/1999/xlink">
    <!-- Generator: Sketch 52.2 (67145) - http://www.bohemiancoding.com/sketch -->
    <title>Mond_Bewölkt</title>
    <desc>Created with Sketch.</desc>
    <g id="Mond_Bewölkt" stroke="none" stroke-width="1" fill="none" fill-rule="evenodd">
        <g transform="translate(10.000000, 0.000000)" fill-rule="nonzero">
            <path d="M76.0365053,5.17786377 C74.1737515,4.41846027 72.1357441,4 70,4 C61.163444,4 54,11.163444 54,20 C54,28.836556 61.163444,36 70,36 C70.5615716,36 71.1163859,35.9710688 71.6630338,35.9146157 C69.0653695,37.2477176 66.1205372,38 63,38 C52.5065898,38 44,29.4934102 44,19 C44,8.50658975 52.5065898,0 63,0 C68.0468768,0 72.6341635,1.96773947 76.0365053,5.17786377 Z" id="Combined-Shape" fill="#FFCC00"></path>
            <path d="M0,54.7688325 C3.78956126e-14,46.8011992 4.66666667,42.1345326 14,40.7688325 C14.1857363,28.0368703 19.1857363,20.3702036 29,17.7688325 C38.8142637,15.1674614 47.647597,19.1674614 55.5,29.7688325 C62.9313761,27.4578461 68.7647094,28.1245127 73,31.7688325 C77.2352906,35.4131523 78.5686239,40.9131523 77,48.2688325 C83.6666667,50.4575224 87,54.1241891 87,59.2688325 C87,64.4134759 83.6666667,67.7468092 77,69.2688325 L14,69.2688325 C4.66666667,67.5697991 -3.69853281e-14,62.7364658 0,54.7688325 Z" id="Wolke" fill="#D8D8D8"></path>
        </g>
    </g>
</svg>