<?xml version="1.0" encoding="UTF-8"?>
<svg width="107px" height="70px" viewBox="0 0 107 70" version="1.1" xmlns="http://www.w3.org/2000/svg" xmlns:xlink="http://www.w3.org/1999/xlink">
    <!-- Generator: Sketch 52.2 (67145) - http://www.bohemiancoding.com/sketch -->
    <title>Mond_Wolke_Regen</title>
    <desc>Created with Sketch.</desc>
    <g id="Mond_Wolke_Regen" stroke="none" stroke-width="1" fill="none" fill-rule="evenodd">
        <g id="Mondregen" transform="translate(25.000000, 4.000000)" fill-rule="nonzero">
            <g id="Regen" transform="translate(14.000000, 49.000000)" fill="#D3D3D3">
                <path d="M1.29166667,0 C2.00503447,0 2.58333333,0.62680135 2.58333333,1.4 L2.58333333,12.6 C2.58333333,13.3731986 2.00503447,14 1.29166667,14 C0.578298865,14 0,13.3731986 0,12.6 L0,1.4 C0,0.62680135 0.578298865,0 1.29166667,0 Z" id="Rectangle-5"></path>
                <path d="M8.39583333,0 C9.10920114,0 9.6875,0.610520796 9.6875,1.36363636 L9.6875,8.63636364 C9.6875,9.3894792 9.10920114,10 8.39583333,10 C7.68246553,10 7.10416667,9.3894792 7.10416667,8.63636364 L7.10416667,1.36363636 C7.10416667,0.610520796 7.68246553,0 8.39583333,0 Z" id="Rectangle-5"></path>
                <path d="M22.6041667,0 C23.3175345,0 23.8958333,0.610520796 23.8958333,1.36363636 L23.8958333,8.63636364 C23.8958333,9.3894792 23.3175345,10 22.6041667,10 C21.8907989,10 21.3125,9.3894792 21.3125,8.63636364 L21.3125,1.36363636 C21.3125,0.610520796 21.8907989,0 22.6041667,0 Z" id="Rectangle-5"></path>
                <path d="M15.5,0 C16.2133678,0 16.7916667,0.62680135 16.7916667,1.4 L16.7916667,12.6 C16.7916667,13.3731986 16.2133678,14 15.5,14 C14.7866322,14 14.2083333,13.3731986 14.2083333,12.6 L14.2083333,1.4 C14.2083333,0.62680135 14.7866322,0 15.5,0 Z" id="Rectangle-5"></path>
                <path d="M29.7083333,0 C30.4217011,0 31,0.62680135 31,1.4 L31,12.6 C31,13.3731986 30.4217011,14 29.7083333,14 C28.9949655,14 28.4166667,13.3731986 28.4166667,12.6 L28.4166667,1.4 C28.4166667,0.62680135 28.9949655,0 29.7083333,0 Z" id="Rectangle-5"></path>
            </g>
            <g id="Mond_Bewölkt">
                <path d="M50.6910036,3.40259619 C49.4491677,2.9035596 48.0904961,2.62857143 46.6666667,2.62857143 C40.7756293,2.62857143 36,7.33597749 36,13.1428571 C36,18.9497368 40.7756293,23.6571429 46.6666667,23.6571429 C47.0410477,23.6571429 47.4109239,23.6381309 47.7753559,23.6010331 C46.0435797,24.4770715 44.0803582,24.9714286 42,24.9714286 C35.0043932,24.9714286 29.3333333,19.3813839 29.3333333,12.4857143 C29.3333333,5.5900447 35.0043932,0 42,0 C45.3645846,0 48.4227757,1.29308593 50.6910036,3.40259619 Z" id="Combined-Shape" fill="#FFCC00"></path>
                <path d="M0,35.9909471 C2.52637417e-14,30.7550738 3.11111111,27.6884071 9.33333333,26.7909471 C9.45715755,18.424229 12.7904909,13.3861338 19.3333333,11.6766614 C25.8761758,9.96718893 31.7650647,12.5957604 37,19.5623756 C41.9542507,18.0437274 45.8431396,18.4818226 48.6666667,20.8766614 C51.4901937,23.2715001 52.3790826,26.8857858 51.3333333,31.7195185 C55.7777778,33.1578005 58,35.5673243 58,38.9480899 C58,42.3288556 55.7777778,44.5193318 51.3333333,45.5195185 L9.33333333,45.5195185 C3.11111111,44.4030108 -2.46568854e-14,41.2268204 0,35.9909471 Z" id="Wolke" fill="#D8D8D8"></path>
            </g>
        </g>
    </g>
</svg>