<?xml version="1.0" encoding="UTF-8"?>
<svg width="107px" height="70px" viewBox="0 0 107 70" version="1.1" xmlns="http://www.w3.org/2000/svg" xmlns:xlink="http://www.w3.org/1999/xlink">
    <!-- Generator: Sketch 52.2 (67145) - http://www.bohemiancoding.com/sketch -->
    <title>Nebel</title>
    <desc>Created with Sketch.</desc>
    <g id="Nebel" stroke="none" stroke-width="1" fill="none" fill-rule="evenodd" stroke-linecap="square">
        <g transform="translate(24.000000, 19.000000)" fill-rule="nonzero" id="Line-2" stroke="#D8D8D8" stroke-width="2.8512">
            <path d="M0,32 C6.51198257,28.1212121 11.4956427,26.1818182 14.9509804,26.1818182 C20.1339869,26.1818182 22.7254902,32 30.5,32 C38.2745098,32 40.8660131,26.1818182 46.0490196,26.1818182 C49.5043573,26.1818182 54.4880174,28.1212121 61,32"></path>
            <path d="M0,23.2727273 C6.51198257,19.3939394 11.4956427,17.4545455 14.9509804,17.4545455 C20.1339869,17.4545455 22.7254902,23.2727273 30.5,23.2727273 C38.2745098,23.2727273 40.8660131,17.4545455 46.0490196,17.4545455 C49.5043573,17.4545455 54.4880174,19.3939394 61,23.2727273"></path>
            <path d="M0,14.5454545 C6.51198257,10.6666667 11.4956427,8.72727273 14.9509804,8.72727273 C20.1339869,8.72727273 22.7254902,14.5454545 30.5,14.5454545 C38.2745098,14.5454545 40.8660131,8.72727273 46.0490196,8.72727273 C49.5043573,8.72727273 54.4880174,10.6666667 61,14.5454545"></path>
            <path d="M0,5.81818182 C6.51198257,1.93939394 11.4956427,0 14.9509804,0 C20.1339869,0 22.7254902,5.81818182 30.5,5.81818182 C38.2745098,5.81818182 40.8660131,0 46.0490196,0 C49.5043573,0 54.4880174,1.93939394 61,5.81818182"></path>
        </g>
    </g>
</svg>