<?xml version="1.0" encoding="UTF-8"?>
<svg width="107px" height="70px" viewBox="0 0 107 70" version="1.1" xmlns="http://www.w3.org/2000/svg" xmlns:xlink="http://www.w3.org/1999/xlink">
    <!-- Generator: Sketch 52.2 (67145) - http://www.bohemiancoding.com/sketch -->
    <title>Regen</title>
    <desc>Created with Sketch.</desc>
    <g id="Regen" stroke="none" stroke-width="1" fill="none" fill-rule="evenodd">
        <g transform="translate(15.000000, 0.000000)" fill-rule="nonzero">
            <g transform="translate(18.000000, 51.000000)" fill="#D3D3D3" id="Rectangle-5">
                <path d="M1.75,0 C2.71649831,0 3.5,0.850658975 3.5,1.9 L3.5,17.1 C3.5,18.149341 2.71649831,19 1.75,19 C0.783501688,19 0,18.149341 0,17.1 L0,1.9 C0,0.850658975 0.783501688,0 1.75,0 Z"></path>
                <path d="M11.375,0 C12.3414983,0 13.125,0.828563937 13.125,1.85064935 L13.125,11.7207792 C13.125,12.7428646 12.3414983,13.5714286 11.375,13.5714286 C10.4085017,13.5714286 9.625,12.7428646 9.625,11.7207792 L9.625,1.85064935 C9.625,0.828563937 10.4085017,0 11.375,0 Z"></path>
                <path d="M30.625,0 C31.5914983,0 32.375,0.828563937 32.375,1.85064935 L32.375,11.7207792 C32.375,12.7428646 31.5914983,13.5714286 30.625,13.5714286 C29.6585017,13.5714286 28.875,12.7428646 28.875,11.7207792 L28.875,1.85064935 C28.875,0.828563937 29.6585017,0 30.625,0 Z"></path>
                <path d="M21,0 C21.9664983,0 22.75,0.850658975 22.75,1.9 L22.75,17.1 C22.75,18.149341 21.9664983,19 21,19 C20.0335017,19 19.25,18.149341 19.25,17.1 L19.25,1.9 C19.25,0.850658975 20.0335017,0 21,0 Z"></path>
                <path d="M40.25,0 C41.2164983,0 42,0.850658975 42,1.9 L42,17.1 C42,18.149341 41.2164983,19 40.25,19 C39.2835017,19 38.5,18.149341 38.5,17.1 L38.5,1.9 C38.5,0.850658975 39.2835017,0 40.25,0 Z"></path>
            </g>
            <path d="M0,33.2390492 C3.3539795e-14,26.2270095 4.1302682,22.1200368 12.3908046,20.9181312 C12.5551919,9.71316955 16.9804793,2.96600016 25.6666667,0.676623019 C34.3528541,-1.61275412 42.1708617,1.90750817 49.1206897,11.2374099 C55.6978846,9.20359028 60.8607199,9.79030066 64.6091954,12.997541 C68.357671,16.2047814 69.5377476,21.0451421 68.1494253,27.518623 C74.0498084,29.4448136 77,32.6717207 77,37.1993443 C77,41.7269678 74.0498084,44.6605197 68.1494253,46 L12.3908046,46 C4.1302682,44.5047392 -3.2734141e-14,40.2510889 0,33.2390492 Z" id="Wolke" fill="#D8D8D8"></path>
        </g>
    </g>
</svg>