<?xml version="1.0" encoding="UTF-8"?>
<svg width="107px" height="70px" viewBox="0 0 107 70" version="1.1" xmlns="http://www.w3.org/2000/svg" xmlns:xlink="http://www.w3.org/1999/xlink">
    <!-- Generator: Sketch 52.2 (67145) - http://www.bohemiancoding.com/sketch -->
    <title>Schnee</title>
    <desc>Created with Sketch.</desc>
    <g id="Schnee" stroke="none" stroke-width="1" fill="none" fill-rule="evenodd">
        <g transform="translate(29.000000, 50.000000)" fill="#D8D8D8" fill-rule="nonzero" id="Combined-Shape">
            <path d="M2.6335587,2.44807652 L2.6335587,0.8 C2.6335587,0.3581722 2.9799136,0 3.40716404,0 L3.59283596,0 C4.0200864,0 4.3664413,0.3581722 4.3664413,0.8 L4.3664413,2.44807652 L5.74662685,1.62403826 C6.11663658,1.40312436 6.58976618,1.53422449 6.8033914,1.91685858 L6.89622736,2.08314142 C7.10985258,2.46577551 6.98307788,2.95504784 6.61306816,3.17596174 L5.23288261,4 L6.61306816,4.82403826 C6.98307788,5.04495216 7.10985258,5.53422449 6.89622736,5.91685858 L6.8033914,6.08314142 C6.58976618,6.46577551 6.11663658,6.59687564 5.74662685,6.37596174 L4.3664413,5.55192348 L4.3664413,7.2 C4.3664413,7.6418278 4.0200864,8 3.59283596,8 L3.40716404,8 C2.9799136,8 2.6335587,7.6418278 2.6335587,7.2 L2.6335587,5.55192348 L1.25337315,6.37596174 C0.883363419,6.59687564 0.410233816,6.46577551 0.1966086,6.08314142 L0.103772636,5.91685858 C-0.10985258,5.53422449 0.0169221153,5.04495216 0.386931843,4.82403826 L1.76711739,4 L0.386931843,3.17596174 C0.0169221153,2.95504784 -0.10985258,2.46577551 0.103772636,2.08314142 L0.1966086,1.91685858 C0.410233816,1.53422449 0.883363419,1.40312436 1.25337315,1.62403826 L2.6335587,2.44807652 Z"></path>
            <path d="M15.6335587,2.44807652 L15.6335587,0.8 C15.6335587,0.3581722 15.9799136,0 16.407164,0 L16.592836,0 C17.0200864,0 17.3664413,0.3581722 17.3664413,0.8 L17.3664413,2.44807652 L18.7466269,1.62403826 C19.1166366,1.40312436 19.5897662,1.53422449 19.8033914,1.91685858 L19.8962274,2.08314142 C20.1098526,2.46577551 19.9830779,2.95504784 19.6130682,3.17596174 L18.2328826,4 L19.6130682,4.82403826 C19.9830779,5.04495216 20.1098526,5.53422449 19.8962274,5.91685858 L19.8033914,6.08314142 C19.5897662,6.46577551 19.1166366,6.59687564 18.7466269,6.37596174 L17.3664413,5.55192348 L17.3664413,7.2 C17.3664413,7.6418278 17.0200864,8 16.592836,8 L16.407164,8 C15.9799136,8 15.6335587,7.6418278 15.6335587,7.2 L15.6335587,5.55192348 L14.2533731,6.37596174 C13.8833634,6.59687564 13.4102338,6.46577551 13.1966086,6.08314142 L13.1037726,5.91685858 C12.8901474,5.53422449 13.0169221,5.04495216 13.3869318,4.82403826 L14.7671174,4 L13.3869318,3.17596174 C13.0169221,2.95504784 12.8901474,2.46577551 13.1037726,2.08314142 L13.1966086,1.91685858 C13.4102338,1.53422449 13.8833634,1.40312436 14.2533731,1.62403826 L15.6335587,2.44807652 Z"></path>
            <path d="M9.6335587,12.4480765 L9.6335587,10.8 C9.6335587,10.3581722 9.9799136,10 10.407164,10 L10.592836,10 C11.0200864,10 11.3664413,10.3581722 11.3664413,10.8 L11.3664413,12.4480765 L12.7466269,11.6240383 C13.1166366,11.4031244 13.5897662,11.5342245 13.8033914,11.9168586 L13.8962274,12.0831414 C14.1098526,12.4657755 13.9830779,12.9550478 13.6130682,13.1759617 L12.2328826,14 L13.6130682,14.8240383 C13.9830779,15.0449522 14.1098526,15.5342245 13.8962274,15.9168586 L13.8033914,16.0831414 C13.5897662,16.4657755 13.1166366,16.5968756 12.7466269,16.3759617 L11.3664413,15.5519235 L11.3664413,17.2 C11.3664413,17.6418278 11.0200864,18 10.592836,18 L10.407164,18 C9.9799136,18 9.6335587,17.6418278 9.6335587,17.2 L9.6335587,15.5519235 L8.25337315,16.3759617 C7.88336342,16.5968756 7.41023382,16.4657755 7.1966086,16.0831414 L7.10377264,15.9168586 C6.89014742,15.5342245 7.01692212,15.0449522 7.38693184,14.8240383 L8.76711739,14 L7.38693184,13.1759617 C7.01692212,12.9550478 6.89014742,12.4657755 7.10377264,12.0831414 L7.1966086,11.9168586 C7.41023382,11.5342245 7.88336342,11.4031244 8.25337315,11.6240383 L9.6335587,12.4480765 Z"></path>
            <path d="M22.6335587,12.4480765 L22.6335587,10.8 C22.6335587,10.3581722 22.9799136,10 23.407164,10 L23.592836,10 C24.0200864,10 24.3664413,10.3581722 24.3664413,10.8 L24.3664413,12.4480765 L25.7466269,11.6240383 C26.1166366,11.4031244 26.5897662,11.5342245 26.8033914,11.9168586 L26.8962274,12.0831414 C27.1098526,12.4657755 26.9830779,12.9550478 26.6130682,13.1759617 L25.2328826,14 L26.6130682,14.8240383 C26.9830779,15.0449522 27.1098526,15.5342245 26.8962274,15.9168586 L26.8033914,16.0831414 C26.5897662,16.4657755 26.1166366,16.5968756 25.7466269,16.3759617 L24.3664413,15.5519235 L24.3664413,17.2 C24.3664413,17.6418278 24.0200864,18 23.592836,18 L23.407164,18 C22.9799136,18 22.6335587,17.6418278 22.6335587,17.2 L22.6335587,15.5519235 L21.2533731,16.3759617 C20.8833634,16.5968756 20.4102338,16.4657755 20.1966086,16.0831414 L20.1037726,15.9168586 C19.8901474,15.5342245 20.0169221,15.0449522 20.3869318,14.8240383 L21.7671174,14 L20.3869318,13.1759617 C20.0169221,12.9550478 19.8901474,12.4657755 20.1037726,12.0831414 L20.1966086,11.9168586 C20.4102338,11.5342245 20.8833634,11.4031244 21.2533731,11.6240383 L22.6335587,12.4480765 Z"></path>
            <path d="M29.6335587,2.44807652 L29.6335587,0.8 C29.6335587,0.3581722 29.9799136,0 30.407164,0 L30.592836,0 C31.0200864,0 31.3664413,0.3581722 31.3664413,0.8 L31.3664413,2.44807652 L32.7466269,1.62403826 C33.1166366,1.40312436 33.5897662,1.53422449 33.8033914,1.91685858 L33.8962274,2.08314142 C34.1098526,2.46577551 33.9830779,2.95504784 33.6130682,3.17596174 L32.2328826,4 L33.6130682,4.82403826 C33.9830779,5.04495216 34.1098526,5.53422449 33.8962274,5.91685858 L33.8033914,6.08314142 C33.5897662,6.46577551 33.1166366,6.59687564 32.7466269,6.37596174 L31.3664413,5.55192348 L31.3664413,7.2 C31.3664413,7.6418278 31.0200864,8 30.592836,8 L30.407164,8 C29.9799136,8 29.6335587,7.6418278 29.6335587,7.2 L29.6335587,5.55192348 L28.2533731,6.37596174 C27.8833634,6.59687564 27.4102338,6.46577551 27.1966086,6.08314142 L27.1037726,5.91685858 C26.8901474,5.53422449 27.0169221,5.04495216 27.3869318,4.82403826 L28.7671174,4 L27.3869318,3.17596174 C27.0169221,2.95504784 26.8901474,2.46577551 27.1037726,2.08314142 L27.1966086,1.91685858 C27.4102338,1.53422449 27.8833634,1.40312436 28.2533731,1.62403826 L29.6335587,2.44807652 Z"></path>
        </g>
        <g id="Bewölkt" transform="translate(16.000000, 5.000000)" fill-rule="nonzero">
            <path d="M23.0377358,22.0940474 C23.0377358,17.4331338 25.7713439,14.7032227 31.23856,13.9043142 C31.3473593,6.45635883 34.2762251,1.9715049 40.0251572,0.449752368 C45.7740894,-1.07200016 50.9484189,1.26792363 55.5481457,7.46952374 C59.9012463,6.1176407 63.3182564,6.507628 65.7991759,8.63948564 C68.2800954,10.7713433 69.0611262,13.9887385 68.1422685,18.2916713 C72.0474228,19.5720132 74,21.7169433 74,24.7264617 C74,27.7359801 72.0474228,29.6859166 68.1422685,30.5762712 L31.23856,30.5762712 C25.7713439,29.582369 23.0377358,26.7549611 23.0377358,22.0940474 Z" id="Wolke" fill="#B1B1B1"></path>
            <path d="M0,30.4156294 C2.64554276e-14,24.8787995 3.25786164,21.6358616 9.77358491,20.6868158 C9.90324989,11.839181 13.3938159,6.51149742 20.245283,4.70376496 C27.0967501,2.89603251 33.2634168,5.67569352 38.745283,13.042748 C43.9332248,11.4368083 48.0055519,11.9000851 50.9622642,14.4325785 C53.9189764,16.9650719 54.849794,20.7871058 53.754717,25.8986802 C58.408805,27.4196342 60.7358491,29.9676568 60.7358491,33.542748 C60.7358491,37.1178392 58.408805,39.4342234 53.754717,40.4919006 L9.77358491,40.4919006 C3.25786164,39.3112163 -2.5819946e-14,35.9524593 0,30.4156294 Z" id="Wolke" fill="#D8D8D8"></path>
        </g>
    </g>
</svg>