<?xml version="1.0" encoding="UTF-8"?>
<svg width="107px" height="70px" viewBox="0 0 107 70" version="1.1" xmlns="http://www.w3.org/2000/svg" xmlns:xlink="http://www.w3.org/1999/xlink">
    <!-- Generator: Sketch 52.2 (67145) - http://www.bohemiancoding.com/sketch -->
    <title>Sonne</title>
    <desc>Created with Sketch.</desc>
    <g id="Sonne" stroke="none" stroke-width="1" fill="none" fill-rule="evenodd">
        <g transform="translate(19.000000, 0.000000)" fill="#FFCC00" fill-rule="nonzero">
            <circle id="Oval-2" cx="35" cy="35" r="14"></circle>
            <g id="Group-2" transform="translate(33.000000, 0.000000)">
                <rect id="Rectangle-2" x="0" y="0" width="4" height="15.75" rx="2"></rect>
                <rect id="Rectangle-2" x="0" y="54.25" width="4" height="15.75" rx="2"></rect>
            </g>
            <g id="Group-2" transform="translate(35.000000, 35.000000) rotate(-315.000000) translate(-35.000000, -35.000000) translate(33.000000, 0.000000)">
                <rect id="Rectangle-2" x="0" y="0" width="4" height="15.75" rx="2"></rect>
                <rect id="Rectangle-2" x="0" y="54.25" width="4" height="15.75" rx="2"></rect>
            </g>
            <g id="Group" transform="translate(35.000000, 35.000000) rotate(-270.000000) translate(-35.000000, -35.000000) translate(33.000000, 0.000000)">
                <rect id="Rectangle-2" x="0" y="0" width="4" height="15.75" rx="2"></rect>
                <rect id="Rectangle-2" x="0" y="54.25" width="4" height="15.75" rx="2"></rect>
            </g>
            <g id="Group" transform="translate(35.000000, 35.000000) rotate(-225.000000) translate(-35.000000, -35.000000) translate(33.000000, 0.000000)">
                <rect id="Rectangle-2" x="0" y="0" width="4" height="15.75" rx="2"></rect>
                <rect id="Rectangle-2" x="0" y="54.25" width="4" height="15.75" rx="2"></rect>
            </g>
        </g>
    </g>
</svg>