<?xml version="1.0" encoding="UTF-8"?>
<svg width="107px" height="70px" viewBox="0 0 107 70" version="1.1" xmlns="http://www.w3.org/2000/svg" xmlns:xlink="http://www.w3.org/1999/xlink">
    <!-- Generator: Sketch 52.2 (67145) - http://www.bohemiancoding.com/sketch -->
    <title>Sonne_Wolke_Regen</title>
    <desc>Created with Sketch.</desc>
    <g id="Sonne_Wolke_Regen" stroke="none" stroke-width="1" fill="none" fill-rule="evenodd">
        <g id="SonneWolkeRegen" transform="translate(17.000000, 0.000000)" fill-rule="nonzero">
            <g id="Regen" transform="translate(28.000000, 56.000000)" fill="#D3D3D3">
                <path d="M1.29166667,0 C2.00503447,0 2.58333333,0.62680135 2.58333333,1.4 L2.58333333,12.6 C2.58333333,13.3731986 2.00503447,14 1.29166667,14 C0.578298865,14 0,13.3731986 0,12.6 L0,1.4 C0,0.62680135 0.578298865,0 1.29166667,0 Z" id="Rectangle-5"></path>
                <path d="M8.39583333,0 C9.10920114,0 9.6875,0.610520796 9.6875,1.36363636 L9.6875,8.63636364 C9.6875,9.3894792 9.10920114,10 8.39583333,10 C7.68246553,10 7.10416667,9.3894792 7.10416667,8.63636364 L7.10416667,1.36363636 C7.10416667,0.610520796 7.68246553,0 8.39583333,0 Z" id="Rectangle-5"></path>
                <path d="M22.6041667,0 C23.3175345,0 23.8958333,0.610520796 23.8958333,1.36363636 L23.8958333,8.63636364 C23.8958333,9.3894792 23.3175345,10 22.6041667,10 C21.8907989,10 21.3125,9.3894792 21.3125,8.63636364 L21.3125,1.36363636 C21.3125,0.610520796 21.8907989,0 22.6041667,0 Z" id="Rectangle-5"></path>
                <path d="M15.5,0 C16.2133678,0 16.7916667,0.62680135 16.7916667,1.4 L16.7916667,12.6 C16.7916667,13.3731986 16.2133678,14 15.5,14 C14.7866322,14 14.2083333,13.3731986 14.2083333,12.6 L14.2083333,1.4 C14.2083333,0.62680135 14.7866322,0 15.5,0 Z" id="Rectangle-5"></path>
                <path d="M29.7083333,0 C30.4217011,0 31,0.62680135 31,1.4 L31,12.6 C31,13.3731986 30.4217011,14 29.7083333,14 C28.9949655,14 28.4166667,13.3731986 28.4166667,12.6 L28.4166667,1.4 C28.4166667,0.62680135 28.9949655,0 29.7083333,0 Z" id="Rectangle-5"></path>
            </g>
            <g id="Sonne" fill="#FFCC00">
                <ellipse id="Oval-2" cx="24.625" cy="23.85" rx="9.45" ry="9.54"></ellipse>
                <g id="Group-2" transform="translate(23.275000, 0.000000)">
                    <rect id="Rectangle-2" x="0" y="0" width="2.7" height="10.7325" rx="1.35"></rect>
                    <rect id="Rectangle-2" x="0" y="36.9675" width="2.7" height="10.7325" rx="1.35"></rect>
                </g>
                <g id="Group-2" transform="translate(24.625000, 24.063142) rotate(-315.000000) translate(-24.625000, -24.063142) translate(23.125000, 0.063142)">
                    <rect id="Rectangle-2" x="0" y="0" width="2.7" height="10.7325" rx="1.35"></rect>
                    <rect id="Rectangle-2" x="0" y="36.9675" width="2.7" height="10.7325" rx="1.35"></rect>
                </g>
                <g id="Group" transform="translate(24.475000, 24.001429) rotate(-270.000000) translate(-24.475000, -24.001429) translate(22.975000, 0.001429)">
                    <rect id="Rectangle-2" x="0" y="0" width="2.7" height="10.7325" rx="1.35"></rect>
                    <rect id="Rectangle-2" x="0" y="36.9675" width="2.7" height="10.7325" rx="1.35"></rect>
                </g>
                <g id="Group" transform="translate(24.412868, 23.851010) rotate(-225.000000) translate(-24.412868, -23.851010) translate(22.912868, -0.148990)">
                    <rect id="Rectangle-2" x="0" y="0" width="2.7" height="10.7325" rx="1.35"></rect>
                    <path d="M1.35,36.9675 L1.35,36.9675 C2.09558441,36.9675 2.7,37.5719156 2.7,38.3175 L2.7,46.35 C2.7,47.0955844 2.09558441,47.7 1.35,47.7 L1.35,47.7 C0.604415588,47.7 2.75584302e-15,47.0955844 2.66453526e-15,46.35 L0,38.3175 C-9.13077564e-17,37.5719156 0.604415588,36.9675 1.35,36.9675 Z" id="Rectangle-2"></path>
                </g>
            </g>
            <path d="M14.5,43.1280968 C14.5,37.7035654 17.637931,34.5264011 23.9137931,33.596604 C24.0386848,24.9284178 27.4007537,19.7087908 34,17.937723 C40.5992463,16.1666551 46.5389014,18.8899388 51.8189655,26.1075739 C56.8159253,24.534206 60.7383391,24.9880866 63.5862069,27.4692157 C66.4340747,29.9503449 67.3306264,33.6948599 66.2758621,38.7027608 C70.7586207,40.1928667 73,42.68921 73,46.1917909 C73,49.6943717 70.7586207,51.9637747 66.2758621,53 L23.9137931,53 C17.637931,51.8432625 14.5,48.5526281 14.5,43.1280968 Z" id="Wolke" fill="#D8D8D8"></path>
        </g>
    </g>
</svg>